<svg xmlns="http://www.w3.org/2000/svg" viewBox="0 0 190 190"><defs><style>.a{fill:#fff;}</style></defs><title>auth</title><path class="a" d="M100,12a88,88,0,1,1-88,88,88.1,88.1,0,0,1,88-88m0-7a95,95,0,1,0,95,95A95,95,0,0,0,100,5Z" transform="translate(-5 -5)"/><path class="a" d="M78.41,115.5H128a13,13,0,0,0-.5,3.55v5.12l-48.61,0v-5.17A13,13,0,0,0,78.41,115.5Zm75.25,3.55v2.36c3-.9,5.77-1.74,6.6-2a3.2,3.2,0,0,0,2.42-2.84v-1h-9.53A13,13,0,0,1,153.66,119.05Zm-13-9.76a9.94,9.94,0,1,0,9.94,9.94A10,10,0,0,0,140.62,109.29Zm0,15.24a5.3,5.3,0,1,1,5.3-5.3A5.3,5.3,0,0,1,140.62,124.53ZM65.88,109.29a9.94,9.94,0,1,0,9.93,9.94A10,10,0,0,0,65.88,109.29Zm0,15.24a5.3,5.3,0,1,1,5.29-5.3A5.31,5.31,0,0,1,65.88,124.53Zm47.38-51.19a2.48,2.48,0,0,0-5,0s0,1.09,0,2.74l5,.06C113.24,74.43,113.26,73.34,113.26,73.34ZM43.71,123c5.19.84,8.18,1.16,9.07,1.25v-5.17a13,13,0,0,1,.51-3.55H37.94C39.38,119.57,40.37,122.43,43.71,123Zm-6.43-12.36a6.59,6.59,0,0,1,2.54-6c3.52-2.73,11-8,28-12,14-7.52,26.17-14,40.59-14.32a102.69,102.69,0,0,1,10.63.47c14.54,1.53,23.16,6.42,29.73,10.17l3.43,1.94h1c3.21,0,4.36,2.15,3.13,4.63a16,16,0,0,1,4.07,10.25c1.75.48,2.26,2.11,2.29,4v2H151.46a13.15,13.15,0,0,0-21.53-.2c-.06.07-.12.13-.17.2H76.68a13,13,0,0,0-21.66,0H37.28ZM155.57,105h1.66a10.06,10.06,0,0,0-2.52-6.34,1.46,1.46,0,0,1-.21-.28l-.05,0-1.21.9Zm-14.75-8.24,4.09-4.37c-7.06-4-15.93-8.5-31.62-9.14V96.7Zm-63.07,0h30.66V83.15c-11.68.28-22.07,5.11-33.5,11.16C74.92,95.27,74.84,96.69,77.75,96.69ZM47.67,106.82c3.42,0,4.49-.32,6.24-1.33,2.88-1.66,3.7-2.11,6.63-4C62.46,100.23,62,98.71,60,99c-5.68.87-14.5,6.11-16.31,7.8Z" transform="translate(-5 -5)"/></svg>