<svg xmlns="http://www.w3.org/2000/svg" viewBox="0 0 190 190"><defs><style>.a{fill:#fff;}</style></defs><title>global</title><path class="a" d="M100,12a88,88,0,1,1-88,88,88.1,88.1,0,0,1,88-88m0-7a95,95,0,1,0,95,95A95,95,0,0,0,100,5Z" transform="translate(-5 -5)"/><polygon class="a" points="124.73 58.91 124.86 59.88 123.41 60.18 123.22 62.23 124.95 62.23 127.25 62.01 128.44 60.6 127.18 60.11 126.49 59.31 125.45 57.63 124.95 55.24 123 55.64 122.45 56.48 122.45 57.43 123.39 58.07 124.73 58.91"/><polygon class="a" points="123.06 59.7 123.17 58.42 122.02 57.92 120.42 58.29 119.23 60.2 119.23 61.44 120.61 61.44 123.06 59.7"/><path class="a" d="M95.05,70.18l-.36.91H93V72h.41s0,.19.06.43l1-.09.65-.4.17-.82.85-.08.34-.69-.78-.16Z" transform="translate(-5 -5)"/><polygon class="a" points="85.64 66.78 85.58 67.64 86.81 67.54 86.94 66.67 86.2 66.09 85.64 66.78"/><path class="a" d="M165,99.33c0-1.9-.12-3.79-.3-5.65a64.59,64.59,0,0,0-4.3-17.7c-.17-.41-.32-.83-.49-1.24A65,65,0,0,0,147.7,55.9l-1-1.06c-1-1-1.95-2-3-2.9A64.87,64.87,0,0,0,56,52.22a65.63,65.63,0,0,0-7.43,8.11,65,65,0,1,0,109.32,69.2,64.16,64.16,0,0,0,5.3-14.32c.31-1.27.58-2.55.81-3.85A65.48,65.48,0,0,0,165,100C165,99.77,165,99.55,165,99.33Zm-12.24-26,.38-.42c.49,1,1,1.93,1.4,2.92l-.62,0-1.16.16ZM143.36,62V59.1c1,1.09,2,2.2,2.95,3.36l-1.17,1.74-4.1,0-.25-.85ZM65,54.79v-.11h1.3l.11-.44h2.13v.93l-.61.81H65V54.79ZM67,57.69s1.3-.22,1.41-.22,0,1.3,0,1.3L65.51,59,65,58.29Zm89.86,25.8h-4.75l-2.9-2.15-3.05.29v1.86h-1l-1-.74-5.28-1.34V78l-6.7.52-2.07,1.12h-2.66l-1.3-.13-3.23,1.79v3.37l-6.59,4.76.54,2h1.34l-.35,1.93-.94.35,0,5.06,5.7,6.49h2.48l.15-.4h4.46l1.29-1.19h2.52l1.39,1.39,3.77.39-.5,5,4.19,7.38-2.21,4.22.15,2L142,125.8v4.77l2.28,3.06v4h2A59.63,59.63,0,0,1,45.11,76.65V74.79l2.13-2.59c.74-1.4,1.54-2.76,2.38-4.09l.1,1.08-2.48,3c-.76,1.45-1.48,2.93-2.13,4.45v3.4l2.48,1.19V86L50,90l1.93.29.25-1.39L49.87,85.4,49.42,82h1.34l.56,3.52,3.3,4.81-.85,1.56,2.09,3.2,5.21,1.29v-.84l2.08.29L63,97.3l1.64.3,2.53.69,3.57,4.07,4.56.34.44,3.72-3.12,2.18-.15,3.32L72,114l4.51,5.65.35,1.94s1.63.44,1.83.44,3.67,2.63,3.67,2.63v10.21l1.24.35-.84,4.71,2.08,2.78-.39,4.67,2.76,4.83,3.53,3.09,3.55.06.35-1.14L92,152l.15-1.09.46-1.33.1-1.37L91,148.13,90.07,147l1.46-1.41.2-1.06-1.64-.47.1-1,2.33-.35L96.07,141l1.19-2.18,3.72-4.76-.85-3.72,1.14-2,3.42.11,2.3-1.83.75-7.18,2.55-3.24.45-2.08-2.33-.75-1.54-2.52-5.25-.06-4.17-1.58-.2-3-1.39-2.43-3.76-.06-2.18-3.42L88,99.43l-.1,1-3.52.21-1.29-1.79-3.67-.75-3,3.49-4.76-.8-.35-5.37-3.47-.59,1.39-2.63-.4-1.51-4.56,3-2.87-.35-1-2.24L61,88.87,62.55,86l3.65-1.85h7v2.15l2.53,1.17-.21-3.67,1.83-1.83,3.68-2.42.25-1.7L85,74l3.9-2.16-.35-.29,2.64-2.48,1,.25.45.56,1-1.11.24-.11-1.09-.16-1.12-.37V67.06l.59-.48h1.3l.6.26.52,1,.63-.1v-.09l.18.07,1.83-.29.26-.89,1,.26v1l-1,.67h0l.15,1.06,3.31,1v0l.76-.06.05-1.44-2.63-1.19-.15-.69,2.18-.75.1-2.08L99.09,63l-.15-3.52L95.82,61H94.68l.3-2.68-4.25-1L89,58.67v4l-3.16,1-1.27,2.65-1.38.22V63.21l-3-.41-1.49-1-.59-2.19,5.31-3.11L86,55.74l.26,1.74,1.45-.07.11-.88,1.51-.22,0-.3-.65-.27-.15-.94,1.86-.15,1.13-1.17.06-.09h0L92,53l3.91-.49L97.64,54,93.1,56.44l5.78,1.36.75-1.93h2.53l.89-1.69-1.79-.44V51.61l-5.6-2.48-3.86.44-2.18,1.14.15,2.78-2.29-.35-.35-1.53,2.19-2-4-.19-1.13.34-.5,1.34,1.49.25-.3,1.48L82.38,53,82,54l-3.67.11A9.85,9.85,0,0,0,78.07,52L81,52l2.18-2.13-1.19-.6-1.59,1.54-2.63-.14-1.58-2.19H72.77l-3.52,2.63h3.22l.3.95-.84.77,3.57.1L76,54.17,72,54l-.2-1-2.53-.55L68,51.74l-3,0a59.5,59.5,0,0,1,74.42,3.49l-.71,1.27-2.75,1.07-1.16,1.26.27,1.47,1.42.2.85,2.14,2.45-1,.41,2.86h-.74l-2-.3-2.23.38-2.16,3-3.08.48-.45,2.64,1.3.31-.38,1.7-3.06-.62-2.81.62-.6,1.56.49,3.28,1.65.78,2.77,0,1.87-.17.57-1.48,2.92-3.8,1.92.4L138,71.62l.35,1.34L143,76.1l-.57.77-2.1-.12.81,1.15,1.29.28,1.51-.63,0-1.82.67-.34-.54-.57L141,73.09l-.82-2.31h2.58l.83.82,2.22,1.92.1,2.32,2.3,2.45.86-3.36,1.59-.87.3,2.75,1.56,1.71,3.11,0q.9,2.31,1.62,4.73Zm-86.44-19L72,63.79l1.41.33L72.94,66l-1.52.48ZM78.74,69v1.23H75.17l-1.33-.37.33-.86,1.71-.71h2.35V69Zm1.64,1.71v1.19l-.89.58-1.11.2v-2Zm-1-.48V68.81l1.22,1.11Zm.55,2.86v1.16l-.85.85H77.19l.29-1.29.9-.08.18-.45ZM75.21,70.7h2l-2.52,3.54-1-.56.23-1.49Zm8.07,2v1.16H81.39l-.52-.75V72H81Zm-1.75-1.58.54-.57.91.57-.73.6Zm76.33,15.42.19-.22c.08.33.16.67.23,1Z" transform="translate(-5 -5)"/><path class="a" d="M45.11,74.79v1.86c.65-1.52,1.37-3,2.13-4.45Z" transform="translate(-5 -5)"/></svg>