<svg xmlns="http://www.w3.org/2000/svg" viewBox="0 0 190 190"><defs><style>.a{fill:#fff;}</style></defs><title>industrial</title><path class="a" d="M100,12a88,88,0,1,1-88,88,88.1,88.1,0,0,1,88-88m0-7a95,95,0,1,0,95,95A95,95,0,0,0,100,5Z" transform="translate(-5 -5)"/><path class="a" d="M43.39,109.46a10.07,10.07,0,0,1,10,10h6a16.06,16.06,0,0,0-32.11,0h6.06A10,10,0,0,1,43.39,109.46Zm23.89-.08V82.92H57.86a5.59,5.59,0,0,0-5.12,3L49.3,94.23c-15.75,1.4-18.2,6.56-18.2,6.56v4.52a18.74,18.74,0,0,1,28,4.07Zm-11.44-22a2.22,2.22,0,0,1,2-1h6v8H52.93Zm116.87,22H69.81v-2.84h102.9Zm0-22.22c0-7.67-1.81-13.88-4-13.88H73.84c-2.23,0-4,6.21-4,13.88s1.8,13.87,4,13.87h7.6v2.75h5.25V101H112.2v2.75h5.25V101H143v2.75h5.25V101h7.59v2.75h16.91V87.15ZM158.89,112.3a7.22,7.22,0,1,0,7.22,7.22A7.23,7.23,0,0,0,158.89,112.3Zm0,10.75a3.54,3.54,0,1,1,3.53-3.53A3.54,3.54,0,0,1,158.89,123.05ZM136.35,112.3a7.22,7.22,0,1,0,7.21,7.22A7.23,7.23,0,0,0,136.35,112.3Zm0,10.75a3.54,3.54,0,1,1,3.53-3.53A3.54,3.54,0,0,1,136.35,123.05ZM81.44,112.3a7.22,7.22,0,1,0,7.22,7.22A7.22,7.22,0,0,0,81.44,112.3Zm0,10.75A3.54,3.54,0,1,1,85,119.52,3.54,3.54,0,0,1,81.44,123.05Zm-38-10.75a7.22,7.22,0,1,0,7.22,7.22A7.23,7.23,0,0,0,43.39,112.3Zm0,10.75a3.54,3.54,0,1,1,3.53-3.53A3.54,3.54,0,0,1,43.39,123.05Zm31.16-10.83a10,10,0,0,0-3.15,7.19H62.23v0a18.54,18.54,0,0,0-1.55-7.14Zm95,0h3.21v3H171a12.89,12.89,0,0,1,.76,4.23h-2.84a10,10,0,0,0-3.15-7.19Zm-40,0a10.08,10.08,0,0,0-3.16,7.19h-2.83a12.89,12.89,0,0,1,.76-4.23H93.56a12.63,12.63,0,0,1,.76,4.23H91.49a10,10,0,0,0-3.16-7.19h41.13Zm22.54,0a10.08,10.08,0,0,0-3.16,7.19h-2.45a10,10,0,0,0-3.15-7.19H152Z" transform="translate(-5 -5)"/></svg>