<svg id="Layer_1" data-name="Layer 1" xmlns="http://www.w3.org/2000/svg" viewBox="0 0 145.29 50.55"><defs><style>.cls-1{fill:#fff;}</style></defs><title>Untitled-1</title><path class="cls-1" d="M620.7,382.18h-9.81A23.12,23.12,0,0,1,634,359.09h23.76a9.81,9.81,0,0,1-9.81,9.81H634A13.3,13.3,0,0,0,620.7,382.18Z" transform="translate(-610.89 -359.09)"/><path class="cls-1" d="M670.5,382.18h-9.81a23.12,23.12,0,0,1,23.09-23.09h23.76a9.81,9.81,0,0,1-9.81,9.81H683.78A13.3,13.3,0,0,0,670.5,382.18Z" transform="translate(-610.89 -359.09)"/><path class="cls-1" d="M719.1,382.18h-9.81a23.12,23.12,0,0,1,23.09-23.09h23.76a9.81,9.81,0,0,1-9.81,9.81H732.38A13.3,13.3,0,0,0,719.1,382.18Z" transform="translate(-610.89 -359.09)"/><path class="cls-1" d="M733.09,409.64H709.33a9.81,9.81,0,0,1,9.81-9.81h13.95a13.3,13.3,0,0,0,13.28-13.28h9.81A23.12,23.12,0,0,1,733.09,409.64Z" transform="translate(-610.89 -359.09)"/><path class="cls-1" d="M684.49,409.64H660.73a9.81,9.81,0,0,1,9.81-9.81h13.95a13.3,13.3,0,0,0,13.28-13.28h9.81A23.12,23.12,0,0,1,684.49,409.64Z" transform="translate(-610.89 -359.09)"/><path class="cls-1" d="M657.74,409.64H634a23.12,23.12,0,0,1-23.09-23.09h9.81A13.3,13.3,0,0,0,634,399.83h13.95a9.81,9.81,0,0,1,9.81,9.81Z" transform="translate(-610.89 -359.09)"/></svg>