<svg xmlns="http://www.w3.org/2000/svg" viewBox="0 0 190 190"><defs><style>.a{fill:#fff;}</style></defs><title>plane</title><path class="a" d="M100,12a88,88,0,1,1-88,88,88.1,88.1,0,0,1,88-88m0-7a95,95,0,1,0,95,95A95,95,0,0,0,100,5Z" transform="translate(-5 -5)"/><path class="a" d="M92.08,58v29.4L36.8,116.55a3.71,3.71,0,0,0-1.8,3v4.69a1.54,1.54,0,0,0,2,1.57l55.1-12.91V138a59,59,0,0,0,1,11.65L81,156.53a3.88,3.88,0,0,0-1.77,3v3.67a1.71,1.71,0,0,0,2,1.74l17-2.46.55-.06.13.39c1,2.87,1.66,2.87,2.66,0l.13-.39.55.06L119.16,165a1.71,1.71,0,0,0,2-1.74v-3.68a3.85,3.85,0,0,0-1.77-3l-12.1-6.91a59.81,59.81,0,0,0,1-11.65V113L163,125.79a1.54,1.54,0,0,0,2-1.56v-4.7a3.71,3.71,0,0,0-1.8-3l-54.87-29V58c0-16.18-4.73-23-8.12-23S92.08,41.79,92.08,58Z" transform="translate(-5 -5)"/></svg>