<svg xmlns="http://www.w3.org/2000/svg" viewBox="0 0 190 190"><defs><style>.a{fill:#fff;}</style></defs><title>special</title><path class="a" d="M100,12a88,88,0,1,1-88,88,88.1,88.1,0,0,1,88-88m0-7a95,95,0,1,0,95,95A95,95,0,0,0,100,5Z" transform="translate(-5 -5)"/><path class="a" d="M110.26,74.25h-1v3.41h5.44V74.25h-1v-5.9a1.7,1.7,0,0,0-3.4,0l-18.2-2.29-.37,3.38,18.57,2.4ZM46.33,75l2.9-2.62h4L56.16,75s.68,2.57-2.62,2.57H49C45.65,77.6,46.33,75,46.33,75ZM88.7,69.75l-4.47-1.94.19-1.76,4.79-.93Zm-8,11.3H47.18c-4.57,0-7.69,1-9.49,6.88-3.93,12.91-4.66,13.94-4.66,21v3.19H80.76ZM54.53,99.66c-1.78.64-12.69,4-14.79,4.7A1.39,1.39,0,0,1,38,102.61c0-.2,2.13-7.43,4.32-14.44,1-2.57,2.06-2.7,4.91-2.7H55a1.76,1.76,0,0,1,1.79,2c0,.62,0,7.42,0,9A2.9,2.9,0,0,1,54.53,99.66Zm19.68-3.22a2,2,0,0,1-2,2H63.24a2,2,0,0,1-2-2V87.51a2,2,0,0,1,2-2h8.93a2,2,0,0,1,2,2Zm63.13,19.16a9.64,9.64,0,1,0,9.64,9.64A9.65,9.65,0,0,0,137.34,115.6Zm0,13.84a4.2,4.2,0,1,1,4.2-4.2A4.21,4.21,0,0,1,137.34,129.44Zm29.42-48.39H84.23v31H169.9C169.89,83.85,166.76,81.05,166.76,81.05Zm-61.89,28.84H88.66v-3.12h16.21Zm0-5.3H88.66v-3.12h16.21Zm0-5.27H88.66V96.2h16.21Zm0-5.26H88.66V90.94h16.21Zm0-5.3H88.66V85.64h16.21Zm20.63,21.13H109.29v-3.12H125.5Zm0-5.3H109.29v-3.12H125.5Zm0-5.27H109.29V96.2H125.5Zm0-5.26H109.29V90.94H125.5Zm0-5.3H109.29V85.64H125.5Zm39.72,21.09H149v-3.08h16.21Zm0-5.3H149v-3.08h16.21Zm0-5.27H149V96.2h16.21Zm0-5.26H149V90.94h16.21Zm0-5.3H149V85.64h16.21ZM146,115.5h23.9c0,3.24,0,8.26,0,11.81H150.2a12.75,12.75,0,0,0,.18-2.07A13,13,0,0,0,146,115.5Zm-21.69,9.74a12.75,12.75,0,0,0,.18,2.07H68a12.75,12.75,0,0,0,.18-2.07,13,13,0,0,0-4.39-9.74h64.91A13,13,0,0,0,124.3,125.24ZM55.13,115.6a9.64,9.64,0,1,0,9.64,9.64A9.65,9.65,0,0,0,55.13,115.6Zm0,13.84a4.2,4.2,0,1,1,4.2-4.2A4.2,4.2,0,0,1,55.13,129.44Zm-13-4.2a12.75,12.75,0,0,0,.18,2.07H33.52c-2.35-4.61-3.42-6.31-3.42-8.72v-1.8c0-1,.5-1.25,1.12-1.29H46.48A13,13,0,0,0,42.09,125.24Z" transform="translate(-5 -5)"/></svg>