<svg xmlns="http://www.w3.org/2000/svg" viewBox="0 0 190 190"><defs><style>.a{fill:#fff;}</style></defs><title>support</title><path class="a" d="M100,12a88,88,0,1,1-88,88,88.1,88.1,0,0,1,88-88m0-7a95,95,0,1,0,95,95A95,95,0,0,0,100,5Z" transform="translate(-5 -5)"/><path class="a" d="M153.08,81a53.25,53.25,0,0,0-90.67-34.3A52.49,52.49,0,0,0,46.92,81a29.54,29.54,0,0,0,17.63,53.25,5.91,5.91,0,0,0,5.9-5.91V81.07a5.91,5.91,0,0,0-5.9-5.91,30.26,30.26,0,0,0-5,.43,41.4,41.4,0,0,1,80.88,0,30.26,30.26,0,0,0-5-.43,5.91,5.91,0,0,0-5.9,5.91v47.28a5.91,5.91,0,0,0,5.9,5.91,29.47,29.47,0,0,0,5.91-.6v14A5.37,5.37,0,0,1,136,153H125.8a5.89,5.89,0,0,0-5.56-3.94H100A5.91,5.91,0,0,0,94.09,155v7.88a5.92,5.92,0,0,0,5.91,5.91h20.24a5.9,5.9,0,0,0,5.56-3.94H136a17.21,17.21,0,0,0,17.18-17.19V128.33a29.52,29.52,0,0,0-.1-47.32Z" transform="translate(-5 -5)"/></svg>